<svg width="20" height="20" viewBox="0 0 90 90" fill="none" xmlns="http://www.w3.org/2000/svg">
<path d="M45 0C20.151 0 0 20.151 0 45C0 69.849 20.151 90 45 90C69.849 90 90 69.849 90 45C90 20.151 69.858 0 45 0ZM22.203 46.512L22.392 46.206L34.101 27.891C34.272 27.63 34.677 27.657 34.803 27.945C36.756 32.328 38.448 37.782 37.656 41.175C37.323 42.57 36.396 44.46 35.352 46.206C35.217 46.458 35.073 46.71 34.911 46.953C34.839 47.061 34.713 47.124 34.578 47.124H22.545C22.221 47.124 22.032 46.773 22.203 46.512ZM74.376 52.812C74.376 52.983 74.277 53.127 74.133 53.19C73.224 53.577 70.119 55.008 68.832 56.799C65.538 61.38 63.027 67.932 57.402 67.932H33.948C25.632 67.932 18.9 61.173 18.9 52.83V52.56C18.9 52.344 19.08 52.164 19.305 52.164H32.373C32.634 52.164 32.823 52.398 32.805 52.659C32.706 53.505 32.868 54.378 33.273 55.17C34.047 56.745 35.658 57.726 37.395 57.726H43.866V52.677H37.467C37.143 52.677 36.945 52.299 37.134 52.029C37.206 51.921 37.278 51.813 37.368 51.687C37.971 50.823 38.835 49.491 39.699 47.97C40.284 46.944 40.851 45.846 41.31 44.748C41.4 44.55 41.472 44.343 41.553 44.145C41.679 43.794 41.805 43.461 41.895 43.137C41.985 42.858 42.066 42.57 42.138 42.3C42.354 41.364 42.444 40.374 42.444 39.348C42.444 38.943 42.426 38.52 42.39 38.124C42.372 37.683 42.318 37.242 42.264 36.801C42.228 36.414 42.156 36.027 42.084 35.631C41.985 35.046 41.859 34.461 41.715 33.876L41.661 33.651C41.553 33.246 41.454 32.868 41.328 32.463C40.959 31.203 40.545 29.97 40.095 28.818C39.933 28.359 39.753 27.918 39.564 27.486C39.294 26.82 39.015 26.217 38.763 25.65C38.628 25.389 38.52 25.155 38.412 24.912C38.286 24.642 38.16 24.372 38.025 24.111C37.935 23.913 37.827 23.724 37.755 23.544L36.963 22.086C36.855 21.888 37.035 21.645 37.251 21.708L42.201 23.049H42.219C42.228 23.049 42.228 23.049 42.237 23.049L42.885 23.238L43.605 23.436L43.866 23.508V20.574C43.866 18.9 45.243 17.523 46.917 17.523C47.754 17.523 48.519 17.868 49.05 18.447C49.581 18.978 49.926 19.734 49.926 20.574V24.939L50.448 25.083C50.493 25.101 50.538 25.119 50.574 25.146C50.691 25.236 50.862 25.353 51.078 25.515C51.24 25.632 51.42 25.794 51.627 25.956C51.96 26.208 52.338 26.514 52.761 26.865C52.878 26.955 52.986 27.045 53.103 27.144C53.742 27.648 54.453 28.242 55.182 28.917C55.389 29.117 55.596 29.325 55.803 29.533C56.01 29.75 56.226 29.958 56.415 30.175C56.685 30.474 56.973 30.773 57.225 31.081C57.351 31.236 57.486 31.382 57.603 31.536C57.963 31.971 58.287 32.406 58.602 32.85C58.728 33.031 58.863 33.221 58.971 33.402C59.376 33.966 59.754 34.539 60.078 35.112C60.159 35.238 60.231 35.364 60.312 35.49C60.528 35.832 60.726 36.174 60.906 36.534C60.987 36.697 61.077 36.869 61.149 37.041C61.383 37.548 61.581 38.046 61.743 38.553C61.779 38.664 61.824 38.772 61.86 38.871C62.04 39.456 62.166 40.041 62.238 40.626C62.256 40.725 62.265 40.833 62.274 40.932C62.337 41.472 62.355 42.003 62.355 42.543C62.355 42.732 62.355 42.93 62.346 43.11C62.346 43.371 62.328 43.632 62.31 43.893C62.292 44.118 62.274 44.352 62.238 44.577C62.184 45.045 62.112 45.504 62.022 45.972C61.986 46.125 61.95 46.269 61.914 46.422C61.806 46.836 61.698 47.241 61.563 47.646C61.518 47.79 61.464 47.943 61.41 48.087C61.275 48.438 61.131 48.798 60.969 49.149C60.861 49.392 60.753 49.635 60.636 49.878C60.564 50.022 60.474 50.175 60.393 50.319C60.213 50.661 60.024 51.003 59.817 51.327C59.727 51.48 59.628 51.642 59.529 51.795C59.241 52.236 58.944 52.677 58.611 53.073C58.476 53.253 58.332 53.415 58.197 53.586C58.044 53.766 57.891 53.937 57.729 54.108C57.522 54.333 57.306 54.558 57.081 54.765C56.955 54.882 56.82 54.999 56.694 55.107C56.415 55.377 56.118 55.629 55.812 55.863C55.731 55.926 55.641 55.998 55.551 56.061C55.254 56.295 54.93 56.502 54.606 56.7C54.516 56.754 54.426 56.817 54.336 56.871C53.976 57.078 53.607 57.258 53.229 57.42C53.148 57.456 53.067 57.492 52.977 57.528C52.545 57.699 52.104 57.834 51.645 57.933C51.564 57.951 51.492 57.969 51.411 57.987C51.213 58.023 51.015 58.05 50.808 58.077C50.628 58.095 50.457 58.104 50.277 58.113C49.827 58.131 49.377 58.14 48.927 58.14C48.801 58.14 48.684 58.14 48.558 58.131C48.243 58.122 47.928 58.095 47.613 58.05C47.451 58.032 47.289 57.996 47.127 57.969C46.596 57.87 46.074 57.735 45.552 57.564C45.462 57.528 45.372 57.501 45.282 57.465C44.814 57.294 44.346 57.096 43.896 56.862C43.815 56.817 43.725 56.772 43.644 56.718C43.212 56.484 42.78 56.223 42.375 55.935C42.276 55.863 42.186 55.791 42.087 55.719C41.763 55.476 41.439 55.206 41.133 54.918C41.025 54.828 40.926 54.729 40.827 54.63C40.494 54.315 40.179 53.991 39.891 53.631C39.81 53.532 39.738 53.433 39.657 53.334C39.369 52.956 39.108 52.551 38.856 52.137C38.793 52.029 38.721 51.912 38.658 51.804C38.415 51.381 38.19 50.931 37.992 50.472C37.956 50.391 37.911 50.301 37.875 50.211C37.677 49.752 37.497 49.275 37.344 48.78C37.326 48.708 37.299 48.645 37.281 48.573C37.137 48.069 37.002 47.547 36.903 47.016C36.885 46.917 36.876 46.818 36.858 46.719C36.768 46.179 36.705 45.63 36.669 45.081C36.66 44.964 36.66 44.838 36.651 44.721C36.633 44.271 36.624 43.812 36.624 43.353C36.624 43.065 36.624 42.768 36.633 42.48C36.642 42.093 36.66 41.697 36.696 41.31C36.705 41.139 36.723 40.968 36.741 40.806C36.804 40.206 36.903 39.615 37.029 39.024C37.056 38.889 37.083 38.763 37.11 38.628C37.254 37.989 37.416 37.35 37.614 36.729C37.65 36.612 37.695 36.495 37.731 36.378C37.956 35.739 38.208 35.118 38.487 34.497C38.532 34.398 38.577 34.308 38.622 34.209C38.928 33.57 39.261 32.958 39.612 32.355C39.648 32.283 39.693 32.22 39.738 32.148C40.107 31.527 40.503 30.924 40.935 30.348L40.971 30.294L40.782 29.88C40.629 29.547 40.467 29.196 40.314 28.863C39.756 27.603 39.135 26.334 38.622 25.137C37.956 23.598 37.425 22.149 37.173 20.925C36.993 20.025 36.939 19.224 37.047 18.549C37.119 17.964 37.281 17.469 37.533 17.073C37.875 16.494 38.415 16.107 39.045 15.975C39.378 15.903 39.72 15.867 40.062 15.867C40.908 15.867 41.754 16.143 42.465 16.677C43.869 17.721 44.904 19.488 45.336 21.678C45.372 21.867 45.408 22.068 45.444 22.266L45.813 20.124C45.831 20.034 45.921 19.971 46.011 20.007L50.205 21.528C50.259 21.546 50.295 21.6 50.295 21.654V23.148C52.167 22.533 54.444 22.551 56.496 23.598C58.278 24.507 59.709 26.055 60.393 28.224C60.42 28.332 60.348 28.44 60.24 28.467L56.865 29.322C56.775 29.34 56.685 29.295 56.649 29.214C56.316 28.467 55.785 27.891 55.137 27.486C53.724 26.604 51.951 26.604 50.529 27.099V42.021L50.709 42.075C50.961 42.156 52.896 42.786 55.038 44.604C55.623 45.072 56.127 45.594 56.568 46.161L60.636 44.019C60.708 43.983 60.798 44.001 60.861 44.055L74.196 52.515C74.331 52.596 74.376 52.758 74.376 52.911V52.812Z" fill="#04111D"/>
</svg>